<?xml version="1.0" encoding="UTF-8" standalone="no"?>
<!-- Created with Inkscape (http://www.inkscape.org/) -->

<svg
   xmlns:dc="http://purl.org/dc/elements/1.1/"
   xmlns:cc="http://creativecommons.org/ns#"
   xmlns:rdf="http://www.w3.org/1999/02/22-rdf-syntax-ns#"
   xmlns:svg="http://www.w3.org/2000/svg"
   xmlns="http://www.w3.org/2000/svg"
   xmlns:sodipodi="http://sodipodi.sourceforge.net/DTD/sodipodi-0.dtd"
   xmlns:inkscape="http://www.inkscape.org/namespaces/inkscape"
   width="1520.979"
   height="247.07607"
   id="svg2"
   version="1.1"
   inkscape:version="0.48.5 r10040"
   sodipodi:docname="Bunsenlabs-text.svg">
  <defs
     id="defs4" />
  <sodipodi:namedview
     id="base"
     pagecolor="#bebebe"
     bordercolor="#666666"
     borderopacity="1.0"
     inkscape:pageopacity="0"
     inkscape:pageshadow="2"
     inkscape:zoom="0.77454545"
     inkscape:cx="867.32419"
     inkscape:cy="136.65358"
     inkscape:document-units="px"
     inkscape:current-layer="layer1"
     showgrid="true"
     borderlayer="false"
     showborder="true"
     fit-margin-top="20"
     fit-margin-left="20"
     fit-margin-right="20"
     fit-margin-bottom="20"
     inkscape:showpageshadow="false"
     inkscape:window-width="1919"
     inkscape:window-height="1029"
     inkscape:window-x="1"
     inkscape:window-y="1"
     inkscape:window-maximized="1">
    <inkscape:grid
       type="xygrid"
       id="grid3009"
       empspacing="5"
       visible="true"
       enabled="true"
       snapvisiblegridlinesonly="true"
       originx="-40px"
       originy="-356.27887px" />
  </sodipodi:namedview>
  <metadata
     id="metadata7">
    <rdf:RDF>
      <cc:Work
         rdf:about="">
        <dc:format>image/svg+xml</dc:format>
        <dc:type
           rdf:resource="http://purl.org/dc/dcmitype/StillImage" />
        <dc:title></dc:title>
      </cc:Work>
    </rdf:RDF>
  </metadata>
  <g
     inkscape:label="text"
     inkscape:groupmode="layer"
     id="layer1"
     transform="translate(-40,-449.00725)">
    <g
       id="g3097">
      <g
         transform="translate(111.71875,840.97356)"
         id="g3065">
        <g
           id="flowRoot3049"
           style="font-size:72px;font-style:normal;font-variant:normal;font-weight:normal;font-stretch:normal;line-height:125%;letter-spacing:0px;word-spacing:0px;fill:#000000;fill-opacity:1;stroke:none;font-family:Open Sans;-inkscape-font-specification:Open Sans"
           transform="translate(0,-672.73157)" />
        <g
           id="flowRoot3057"
           style="font-size:144px;font-style:normal;font-variant:normal;font-weight:normal;font-stretch:normal;line-height:125%;letter-spacing:0px;word-spacing:0px;fill:#000000;fill-opacity:1;stroke:none;font-family:Open Sans;-inkscape-font-specification:Open Sans"
           transform="translate(-66,-658.45032)">
          <path
             id="path3095"
             d="m 1495.2602,451.64558 c 0,13.40214 -4.9931,23.73842 -14.979,31.00885 -9.986,7.27043 -24.0012,10.90564 -42.0458,10.90564 -19.096,0 -33.9872,-3.02203 -44.6738,-9.06614 l 0,-20.23458 c 6.9201,3.50384 14.3218,6.26309 22.2056,8.27776 7.9711,2.01473 15.6357,3.02208 22.9939,3.02206 11.3873,2e-5 20.1468,-1.7957 26.2786,-5.38712 6.1316,-3.679 9.1974,-9.24132 9.1974,-16.68698 0,-5.60608 -2.4527,-10.38002 -7.3581,-14.32188 -4.8176,-4.02934 -14.278,-8.75951 -28.3809,-14.19048 -13.4021,-4.9929 -22.95,-9.32887 -28.6438,-13.00797 -5.6061,-3.76651 -9.8107,-8.01491 -12.6137,-12.74515 -2.7153,-4.73007 -4.0732,-10.37997 -4.0732,-16.94975 0,-11.7377 4.774,-20.97903 14.322,-27.72402 9.5477,-6.83233 22.6433,-10.24855 39.2866,-10.2487 15.5044,1.5e-4 30.6583,3.15359 45.4623,9.46033 l -7.7525,17.73812 c -14.4533,-5.95638 -27.5488,-8.93462 -39.2865,-8.93475 -10.3364,1.3e-4 -18.1325,1.62064 -23.3881,4.86155 -5.2558,3.24116 -7.8836,7.70855 -7.8836,13.40214 0,3.85432 0.9635,7.13914 2.8907,9.85451 2.0147,2.71555 5.2117,5.29962 9.5917,7.75221 4.3797,2.45276 12.7889,6.00038 25.2276,10.64288 17.081,6.21934 28.5998,12.48243 34.5565,18.78924 6.0439,6.30694 9.0661,14.23434 9.0661,23.78223 M 1304.3455,344.55993 c 18.9206,1.4e-4 33.5927,6.4822 44.0168,19.44623 10.5114,12.87665 15.767,31.14033 15.7673,54.79105 -3e-4,23.65086 -5.2997,42.04593 -15.8986,55.18524 -10.5117,13.05175 -25.1402,19.57762 -43.8855,19.57762 -9.3729,0 -17.9572,-1.70811 -25.7532,-5.12434 -7.7084,-3.50382 -14.1905,-8.84715 -19.4461,-16.03001 l -1.5767,0 -4.5988,18.52648 -15.6357,0 0,-204.44819 21.8112,0 0,49.66674 c 0,11.12478 -0.3505,21.11065 -1.0512,29.95769 l 1.0512,0 c 10.161,-14.36555 25.2274,-21.54837 45.1993,-21.54851 m -3.1535,18.26368 c -14.8912,1.1e-4 -25.6217,4.29231 -32.1914,12.87655 -6.5696,8.49687 -9.8544,22.86257 -9.8544,43.09705 0,20.23464 3.3723,34.73171 10.1172,43.49122 6.7448,8.67198 17.5628,13.00797 32.4541,13.00797 13.4021,0 23.3879,-4.86156 29.9578,-14.58468 6.5695,-9.81068 9.8545,-23.86975 9.8545,-42.1773 0,-18.74538 -3.285,-32.71685 -9.8545,-41.9145 -6.5699,-9.19742 -16.7309,-13.7962 -30.4833,-13.79631 m -125.0866,128.10859 -4.3359,-20.49738 -1.0512,0 c -7.1828,9.02236 -14.3657,15.15405 -21.5485,18.39508 -7.0952,3.15345 -15.9862,4.73017 -26.6728,4.73017 -14.2781,0 -25.4904,-3.67902 -33.6367,-11.03706 -8.0588,-7.358 -12.0882,-17.82568 -12.0882,-31.40301 0,-29.08168 23.2566,-44.3233 69.7699,-45.72492 l 24.4391,-0.78836 0,-8.93476 c 0,-11.29972 -2.4528,-19.6213 -7.3581,-24.96474 -4.8178,-5.43082 -12.5699,-8.14627 -23.2565,-8.1464 -12.0007,1.3e-4 -25.578,3.67915 -40.732,11.03704 l -6.7011,-16.68697 c 7.0953,-3.85405 14.8475,-6.87611 23.2567,-9.06614 8.4967,-2.18974 16.9935,-3.28468 25.4903,-3.28482 17.1687,1.4e-4 29.8701,3.81055 38.1041,11.43122 8.3214,7.62095 12.8245,19.84399 12.4823,36.65876 l 0,98.28229 -16.1614,0 m -49.2725,-15.37303 c 13.5773,2e-5 24.2202,-3.7228 31.9286,-11.16844 7.796,-7.4456 11.6941,-17.86944 11.6941,-31.27164 l 0,-13.00793 -21.8113,0.91973 c -17.3441,0.61326 -29.8702,3.3287 -37.5785,8.1464 -7.6209,4.73022 -11.4313,12.13204 -11.4313,22.20549 0,7.88363 2.3651,13.88393 7.0953,18.00089 4.8177,4.11703 11.5188,6.17552 20.1031,6.1755 m -85.7999,15.37303 -21.8113,0 0,-204.44819 21.8113,0 0,204.44819 m -66.00295,0 -40.07498,0 0,-85.79991 c -1.2e-4,-10.59895 -1.88344,-18.52638 -5.64998,-23.7822 -3.76665,-5.34324 -9.76697,-8.01489 -18.00082,-8.015 -11.21235,1.1e-4 -19.31495,3.76672 -24.30781,11.29982 -4.99308,7.44574 -7.48945,19.84049 -7.48945,37.18435 l 0,69.11294 -40.075,0 0,-146.89785 30.61468,0 5.38713,18.78926 2.23373,0 c 4.4673,-7.09512 10.59897,-12.43845 18.395,-16.03001 7.88351,-3.67885 16.81837,-5.51836 26.80429,-5.51851 17.08109,1.5e-4 30.04519,4.64271 38.89241,13.9277 8.84701,9.19765 13.27068,22.5122 13.2708,39.9436 l 0,95.78581 M 741.01834,369.78746 c -8.49685,1.2e-4 -15.1541,2.71558 -19.9718,8.1464 -4.81783,5.34345 -7.57709,12.96425 -8.2778,22.86246 l 56.2364,0 c -0.1753,-9.89821 -2.75938,-17.51901 -7.75222,-22.86246 -4.99304,-5.43082 -11.73791,-8.14628 -20.23458,-8.1464 m 5.64991,123.77261 c -23.65087,0 -42.13352,-6.52587 -55.44803,-19.57762 -13.31454,-13.05172 -19.97182,-31.53438 -19.97179,-55.44803 -3e-5,-24.61428 6.13166,-43.6225 18.39508,-57.02475 12.35092,-13.48957 29.38826,-20.23443 51.11204,-20.23458 20.76006,1.5e-4 36.92144,5.91285 48.48417,17.7381 11.56249,11.82553 17.3438,28.16211 17.34393,49.00978 l 0,19.44622 -94.73466,0 c 0.43792,11.38747 3.81035,20.27843 10.1173,26.67285 6.30682,6.3945 15.15396,9.59176 26.54148,9.59174 8.84705,2e-5 17.21243,-0.91974 25.09615,-2.75929 7.88347,-1.83945 16.11746,-4.77393 24.70196,-8.80335 l 0,31.00886 c -7.00779,3.50382 -14.4972,6.0879 -22.46829,7.7522 -7.97131,1.75191 -17.6944,2.62787 -29.16934,2.62787 m -98.01949,-46.25049 c -1.4e-4,15.06649 -5.25586,26.5415 -15.76723,34.42509 -10.42398,7.88361 -26.05978,11.8254 -46.90745,11.8254 -10.68672,0 -19.79664,-0.74457 -27.32982,-2.23368 -7.53327,-1.40153 -14.58471,-3.50384 -21.15436,-6.3069 l 0,-33.11114 c 7.44562,3.50387 15.81099,6.43831 25.09615,8.80337 9.37269,2.36512 17.60667,3.54764 24.70196,3.54763 14.5408,1e-5 21.81122,-4.20458 21.81133,-12.61377 -1.1e-4,-3.15341 -0.96364,-5.69369 -2.89067,-7.62084 -1.92718,-2.01465 -5.25581,-4.24834 -9.9859,-6.70105 -4.73021,-2.54023 -11.0371,-5.47467 -18.92067,-8.80335 -11.29985,-4.73011 -19.62143,-9.10989 -24.96473,-13.13936 -5.25575,-4.02932 -9.10997,-8.62808 -11.56262,-13.79633 -2.36509,-5.25562 -3.54764,-11.69391 -3.54762,-19.31481 -2e-5,-13.05162 5.03672,-23.12511 15.11024,-30.2205 10.16105,-7.18269 24.52672,-10.7741 43.09705,-10.77425 17.69421,1.5e-4 34.90675,3.85434 51.63761,11.56263 l -12.08819,28.90655 c -7.35813,-3.15334 -14.23439,-5.73742 -20.62877,-7.75222 -6.39455,-2.01458 -12.92045,-3.02194 -19.57764,-3.02205 -11.82545,1.1e-4 -17.73815,3.19736 -17.7381,9.59172 -5e-5,3.59153 1.88326,6.70117 5.64991,9.32893 3.85415,2.62797 12.21953,6.52598 25.09616,11.694 11.47493,4.64265 19.88408,8.97865 25.22752,13.00797 5.34324,4.02947 9.28503,8.67204 11.82543,13.92772 2.54015,5.25578 3.81027,11.51887 3.81041,18.78924 m -144.00721,43.62262 -40.07499,0 0,-85.79991 c -1.1e-4,-10.59895 -1.88344,-18.52638 -5.64993,-23.7822 -3.76672,-5.34324 -9.76701,-8.01489 -18.00089,-8.015 -11.21234,1.1e-4 -19.31493,3.76672 -24.30781,11.29982 -4.99298,7.44574 -7.48947,19.84049 -7.48941,37.18435 l 0,69.11294 -40.075,0 0,-146.89785 30.61467,0 5.38712,18.78926 2.2337,0 c 4.46732,-7.09512 10.59902,-12.43845 18.39509,-16.03001 7.88351,-3.67885 16.81827,-5.51836 26.80426,-5.51851 17.08103,1.5e-4 30.04515,4.64271 38.89246,13.9277 8.84699,9.19765 13.27058,22.5122 13.27073,39.9436 l 0,95.78581 m -208.65277,0 -5.38713,-18.78925 -2.10229,0 c -4.29231,6.83246 -10.38021,12.132 -18.2637,15.8986 -7.88371,3.67903 -16.86224,5.51852 -26.93565,5.51852 -17.25641,0 -30.26435,-4.59876 -39.02386,-13.79631 -8.75958,-9.28511 -13.13937,-22.59964 -13.13934,-39.9436 l 0,-95.78581 40.07501,0 0,85.79991 c -6e-5,10.59911 1.88324,18.57031 5.6499,23.91361 3.76655,5.25575 9.76685,7.88363 18.00091,7.88361 11.21215,2e-5 19.31474,-3.7228 24.30778,-11.16845 4.99284,-7.53318 7.48932,-19.97174 7.48943,-37.31575 l 0,-69.11293 40.07499,0 0,146.89785 -30.74605,0 M 14.28125,298.835 l 59.784021,0 c 27.242109,1.9e-4 46.994899,3.89821 59.258429,11.69403 12.35084,7.70857 18.52631,20.01575 18.52649,36.92152 -1.8e-4,11.47518 -2.71563,20.89171 -8.14642,28.24961 -5.34346,7.35815 -12.4825,11.78171 -21.41713,13.27073 l 0,1.31395 c 12.17565,2.71556 20.93521,7.7961 26.27869,15.24165 5.43078,7.44567 8.14623,17.34398 8.14641,29.6949 -1.8e-4,17.51915 -6.35085,31.18407 -19.05204,40.99474 -12.61391,9.81073 -29.78265,14.71607 -51.506235,14.71607 l -71.872215,0 0,-192.0972 m 40.731956,76.0768 23.65082,0 c 11.036954,1.2e-4 19.008143,-1.70799 23.913614,-5.12434 4.99283,-3.4161 7.48931,-9.06602 7.48942,-16.94974 -1.1e-4,-7.35791 -2.71557,-12.61362 -8.14639,-15.76721 -5.34343,-3.24092 -13.840199,-4.86141 -25.490331,-4.86159 l -21.417133,0 0,42.70288 m 0,32.32279 0,50.06088 26.54148,0 c 11.212151,4e-5 19.489914,-2.14606 24.833364,-6.43827 5.3432,-4.29213 8.01487,-10.86179 8.01499,-19.709 -1.2e-4,-15.94234 -11.38754,-23.91352 -34.162297,-23.91361 l -25.227537,0"
             inkscape:connector-curvature="0"
             sodipodi:nodetypes="csscccscsccccsccccccscccccccccscccccccscccccscsccccccccscsccscccccccsccccscccscccccccccccccscccccccccsccccccccsscccscccssccccccsccccsccccccsccccccccccccccccccscccccccccscccccscsccscscscccccsccccccccsccccccccccccsscsc" />
        </g>
      </g>
    </g>
  </g>
</svg>
